HIERARCHY
ROOT Hips
{
	OFFSET 0.000000 0.000000 0.000000
	CHANNELS 6 Xposition Yposition Zposition Zrotation Yrotation Xrotation 
	JOINT LowerBack
	{
		OFFSET 0.000000 0.000000 0.000000
		CHANNELS 3 Zrotation Yrotation Xrotation
		JOINT Spine
		{
			OFFSET 0.028270 2.035590 -0.193380
			CHANNELS 3 Zrotation Yrotation Xrotation
			JOINT Spine1
			{
				OFFSET 0.056720 2.048850 -0.042750
				CHANNELS 3 Zrotation Yrotation Xrotation
				JOINT Neck
				{
					OFFSET 0.000000 0.000000 0.000000
					CHANNELS 3 Zrotation Yrotation Xrotation
					JOINT Neck1
					{
						OFFSET -0.054170 1.746240 0.172020
						CHANNELS 3 Zrotation Yrotation Xrotation
						JOINT Head
						{
							OFFSET 0.104070 1.761360 -0.123970
							CHANNELS 3 Zrotation Yrotation Xrotation
							End Site
							{
								OFFSET 0.000000 0.000000 0.000000
							}
						}
					}
				}
				JOINT LeftShoulder
				{
					OFFSET 0.000000 0.000000 0.000000
					CHANNELS 3 Zrotation Yrotation Xrotation
					JOINT LeftArm
					{
						OFFSET 3.362410 1.200890 -0.311210
						CHANNELS 3 Zrotation Yrotation Xrotation
						JOINT LeftForeArm
						{
							OFFSET 4.983000 -0.000000 -0.000000
							CHANNELS 3 Zrotation Yrotation Xrotation
							JOINT LeftHand
							{
								OFFSET 3.483560 -0.000000 -0.000000
								CHANNELS 3 Zrotation Yrotation Xrotation
								JOINT LeftFingerBase
								{
									OFFSET 0.000000 0.000000 0.000000
									CHANNELS 3 Zrotation Yrotation Xrotation
									JOINT LeftHandIndex1
									{
										OFFSET 0.715260 -0.000000 -0.000000
										CHANNELS 3 Zrotation Yrotation Xrotation
										End Site
										{
											OFFSET 0.000000 0.000000 0.000000
										}
									}
								}
								JOINT LThumb
								{
									OFFSET 0.000000 0.000000 0.000000
									CHANNELS 3 Zrotation Yrotation Xrotation
									End Site
									{
										OFFSET 0.000000 0.000000 0.000000
									}
								}
							}
						}
					}
				}
				JOINT RightShoulder
				{
					OFFSET 0.000000 0.000000 0.000000
					CHANNELS 3 Zrotation Yrotation Xrotation
					JOINT RightArm
					{
						OFFSET -3.136600 1.374050 -0.404650
						CHANNELS 3 Zrotation Yrotation Xrotation
						JOINT RightForeArm
						{
							OFFSET -5.241900 -0.000000 -0.000000
							CHANNELS 3 Zrotation Yrotation Xrotation
							JOINT RightHand
							{
								OFFSET -3.444170 -0.000000 -0.000000
								CHANNELS 3 Zrotation Yrotation Xrotation
								JOINT RightFingerBase
								{
									OFFSET 0.000000 0.000000 0.000000
									CHANNELS 3 Zrotation Yrotation Xrotation
									JOINT RightHandIndex1
									{
										OFFSET -0.622530 -0.000000 -0.000000
										CHANNELS 3 Zrotation Yrotation Xrotation
										End Site
										{
											OFFSET 0.000000 0.000000 0.000000
										}
									}
								}
								JOINT RThumb
								{
									OFFSET 0.000000 0.000000 0.000000
									CHANNELS 3 Zrotation Yrotation Xrotation
									End Site
									{
										OFFSET 0.000000 0.000000 0.000000
									}
								}
							}
						}
					}
				}
			}
		}
	}
}
}
MOTION
Frames: 14
Frame Time: 0.008333
-8.171105 17.493010 -0.896796 43.985050 87.000359 79.545772 5.439811 -3.084065 3.811642 0.686324 -3.170624 -2.326361 -5.492076 -3.288514 -0.764199 9.948572 4.904778 4.537751 -3.043664 -0.322559 2.985206 0.000000 0.000000 0.000000 -4.466202 -7.775422 -1.723381 -88.367186 -42.969561 39.344060 -0.947393 -72.560606 -0.035276 5.192235 -8.874950 -0.446079 -0.151425 0.705660 -0.000000 0.000000 0.000000 0.000000 0.000000 0.000000 0.000000 14.083245 2.824492 3.920676 47.681591 5.555893 -20.284940 2.844823 6.383111 -0.000803 -1.398775 1.056407 -0.015287 0.101216 -0.118620 -0.000000 0.000000 0.000000 0.000000 0.000000 0.000000 0.000000 
-7.942951 17.498179 -0.853720 48.411312 86.896152 83.821477 5.603160 -3.250473 3.790638 0.746832 -3.342609 -2.333111 -5.409332 -3.462035 -0.784202 9.829272 4.634884 4.503512 -3.015094 -0.320939 2.981381 0.000000 0.000000 0.000000 -4.083523 -7.927500 -1.853460 -88.520633 -43.529670 39.625100 -0.866970 -74.097952 -0.032664 4.820430 -9.058256 -0.423020 -0.144698 0.723242 -0.000000 0.000000 0.000000 0.000000 0.000000 0.000000 0.000000 13.766108 2.523901 4.001247 47.125440 5.404524 -20.528431 2.823271 6.259548 -0.001375 -1.543161 0.923829 -0.014891 0.102225 -0.120299 -0.000000 0.000000 0.000000 0.000000 0.000000 0.000000 0.000000 
-7.715182 17.491246 -0.809734 52.429511 86.773043 87.644123 5.750823 -3.403817 3.794853 0.802105 -3.499703 -2.333646 -5.326123 -3.620100 -0.798935 9.712399 4.341485 4.462974 -2.985054 -0.319174 2.975331 0.000000 0.000000 0.000000 -3.716629 -8.068240 -1.980007 -88.615754 -44.071823 39.841003 -0.787714 -75.516923 -0.030707 4.529629 -9.171545 -0.402873 -0.139138 0.738162 -0.000000 0.000000 0.000000 0.000000 0.000000 0.000000 0.000000 13.441408 2.205473 4.071067 46.594887 5.268007 -20.690163 2.804288 6.178780 -0.001881 -1.717728 0.869423 -0.015695 0.103455 -0.122105 -0.000000 0.000000 0.000000 0.000000 0.000000 0.000000 0.000000 
-7.487681 17.471795 -0.764678 55.974393 86.631366 90.959581 5.879281 -3.543036 3.813485 0.851777 -3.641369 -2.330050 -5.242693 -3.762177 -0.807279 9.597716 4.019687 4.412599 -2.953682 -0.317263 2.966261 0.000000 0.000000 0.000000 -3.363782 -8.189767 -2.102948 -88.660764 -44.592721 39.998117 -0.711537 -76.810478 -0.029428 4.317836 -9.215915 -0.386234 -0.134832 0.750320 -0.000000 0.000000 0.000000 0.000000 0.000000 0.000000 0.000000 13.109157 1.866046 4.129956 46.093368 5.144543 -20.785401 2.789272 6.149048 -0.002294 -1.900845 0.881655 -0.017498 0.104834 -0.123978 -0.000000 0.000000 0.000000 0.000000 0.000000 0.000000 0.000000 
-7.260463 17.439496 -0.718542 58.950186 86.474888 93.686394 5.989303 -3.665890 3.833908 0.896559 -3.766117 -2.324911 -5.158818 -3.886850 -0.808789 9.484205 3.663855 4.348167 -2.921060 -0.315196 2.953221 0.000000 0.000000 0.000000 -3.022461 -8.287430 -2.222707 -88.664619 -45.084916 40.095332 -0.640002 -77.974402 -0.028762 4.174157 -9.202537 -0.373208 -0.131574 0.759846 -0.000000 0.000000 0.000000 0.000000 0.000000 0.000000 0.000000 12.768516 1.501859 4.178589 45.621694 5.036943 -20.832818 2.779148 6.174653 -0.002603 -2.074761 0.944460 -0.020299 0.106314 -0.125878 -0.000000 0.000000 0.000000 0.000000 0.000000 0.000000 0.000000 
-7.033523 17.394287 -0.671477 61.274882 86.309377 95.757710 6.084120 -3.770042 3.844093 0.937564 -3.872383 -2.320731 -5.074772 -3.992646 -0.803216 9.371279 3.272469 4.265774 -2.887335 -0.312963 2.935328 0.000000 0.000000 0.000000 -2.695628 -8.355498 -2.338057 -88.632284 -45.544730 40.134182 -0.574625 -79.004645 -0.028615 4.086423 -9.143222 -0.363392 -0.129136 0.766922 -0.000000 0.000000 0.000000 0.000000 0.000000 0.000000 0.000000 12.420161 1.113947 4.218093 45.177646 4.943589 -20.849701 2.774362 6.264391 -0.002810 -2.226506 1.037074 -0.023600 0.107865 -0.127771 -0.000000 0.000000 0.000000 0.000000 0.000000 0.000000 0.000000 
-6.806996 17.336328 -0.623721 62.883803 86.140176 97.122508 6.168773 -3.853288 3.834448 0.976240 -3.958605 -2.319739 -4.990719 -4.078131 -0.791135 9.258296 2.854281 4.163768 -2.852009 -0.310530 2.912269 0.000000 0.000000 0.000000 -2.394890 -8.389348 -2.445059 -88.560355 -45.972765 40.116486 -0.516689 -79.898436 -0.028885 4.043439 -9.049151 -0.356287 -0.127319 0.771766 -0.000000 0.000000 0.000000 0.000000 0.000000 0.000000 0.000000 12.063202 0.714684 4.249958 44.760515 4.854535 -20.873118 2.774041 6.423915 -0.002916 -2.343566 1.143961 -0.027199 0.109401 -0.129691 -0.000000 0.000000 0.000000 0.000000 0.000000 0.000000 0.000000 
-6.581054 17.266087 -0.575687 63.689435 85.978271 97.707604 6.253567 -3.912283 3.797370 1.014844 -4.022148 -2.323817 -4.907551 -4.140824 -0.773737 9.146140 2.413940 4.040577 -2.815628 -0.307911 2.883697 0.000000 0.000000 0.000000 -2.126731 -8.391416 -2.540848 -88.445080 -46.363419 40.033089 -0.466769 -80.658284 -0.029417 4.028722 -8.940064 -0.350993 -0.125717 0.774830 -0.000000 0.000000 0.000000 0.000000 0.000000 0.000000 0.000000 11.703039 0.310204 4.276103 44.359099 4.769044 -20.904282 2.778634 6.658267 -0.002945 -2.422120 1.245633 -0.030397 0.110943 -0.131626 -0.000000 0.000000 0.000000 0.000000 0.000000 0.000000 0.000000 
-6.356008 17.184382 -0.527808 63.641307 85.830499 97.467518 6.347932 -3.946260 3.733310 1.055159 -4.062481 -2.333053 -4.826567 -4.180306 -0.751969 9.035692 1.970855 3.898208 -2.777986 -0.305085 2.850102 0.000000 0.000000 0.000000 -1.911108 -8.360624 -2.618060 -88.267299 -46.722436 39.880633 -0.425332 -81.287464 -0.030136 4.035349 -8.822353 -0.347208 -0.124258 0.776324 -0.000000 0.000000 0.000000 0.000000 0.000000 0.000000 0.000000 11.342930 -0.078456 4.297922 43.966184 4.683539 -20.975717 2.786710 6.952732 -0.002883 -2.457661 1.344292 -0.033094 0.112400 -0.133674 0.000000 0.000000 0.000000 0.000000 0.000000 0.000000 0.000000 
-6.132261 17.091990 -0.480398 62.655685 85.701397 96.323824 6.455279 -3.949647 3.646176 1.097087 -4.074018 -2.347908 -4.749328 -4.191095 -0.731139 8.935711 1.530905 3.739641 -2.741068 -0.302177 2.812246 0.000000 0.000000 0.000000 -1.736600 -8.319191 -2.676844 -88.028376 -47.028026 39.635910 -0.391788 -81.795579 -0.030845 4.043236 -8.734055 -0.344533 -0.122334 0.777204 -0.000000 0.000000 0.000000 0.000000 0.000000 0.000000 0.000000 11.002936 -0.446525 4.317743 43.562912 4.572035 -21.018927 2.801315 7.357131 -0.002822 -2.456118 1.392775 -0.034191 0.113943 -0.135594 0.000000 0.000000 0.000000 0.000000 0.000000 0.000000 0.000000 
-5.910302 16.990265 -0.433680 60.736179 85.584654 94.261698 6.578038 -3.927962 3.556761 1.140336 -4.061298 -2.363172 -4.677155 -4.177602 -0.709970 8.844727 1.123424 3.570654 -2.703973 -0.299116 2.771302 0.000000 0.000000 0.000000 -1.634567 -8.260975 -2.706567 -87.689373 -47.298976 39.298535 -0.366098 -82.189875 -0.031626 4.062320 -8.658166 -0.343166 -0.120406 0.777178 -0.000000 0.000000 0.000000 0.000000 0.000000 0.000000 0.000000 10.681123 -0.766985 4.335171 43.148786 4.464712 -21.133842 2.816819 7.781127 -0.002654 -2.414997 1.453017 -0.034987 0.115265 -0.137753 0.000000 0.000000 0.000000 0.000000 0.000000 0.000000 0.000000 
-5.690753 16.880513 -0.387453 57.923029 85.465356 91.298075 6.704350 -3.884483 3.492731 1.180775 -4.025921 -2.373337 -4.612147 -4.141269 -0.692202 8.773454 0.769212 3.398996 -2.668247 -0.296003 2.728975 0.000000 0.000000 0.000000 -1.597552 -8.200267 -2.704591 -87.235970 -47.525358 38.849915 -0.347425 -82.481496 -0.032440 4.089446 -8.606414 -0.343407 -0.118426 0.776618 -0.000000 0.000000 0.000000 0.000000 0.000000 0.000000 0.000000 10.397520 -1.024696 4.350091 42.713318 4.352321 -21.273321 2.833773 8.226680 -0.002409 -2.348341 1.520685 -0.035582 0.116422 -0.139988 0.000000 0.000000 0.000000 0.000000 0.000000 0.000000 0.000000 
-5.474128 16.764111 -0.341400 54.336866 85.327975 87.527160 6.821026 -3.820001 3.483371 1.213581 -3.966895 -2.373359 -4.557285 -4.080937 -0.685157 8.738550 0.491163 3.236441 -2.636573 -0.293064 2.688126 0.000000 0.000000 0.000000 -1.608982 -8.166511 -2.670553 -86.662305 -47.683912 38.269579 -0.334827 -82.679655 -0.033313 4.127246 -8.595289 -0.345952 -0.116456 0.776036 -0.000000 0.000000 0.000000 0.000000 0.000000 0.000000 0.000000 10.182686 -1.203116 4.362658 42.245126 4.189704 -21.375626 2.853705 8.745323 -0.002175 -2.269052 1.559313 -0.035277 0.117514 -0.141959 0.000000 0.000000 0.000000 0.000000 0.000000 0.000000 0.000000 
-5.261137 16.642950 -0.295002 50.276476 85.156729 83.214769 6.917240 -3.747945 3.561438 1.235781 -3.895434 -2.354628 -4.513591 -4.007535 -0.686180 8.741724 0.306553 3.089567 -2.608874 -0.290282 2.649938 0.000000 0.000000 0.000000 -1.673480 -8.154740 -2.601315 -85.946162 -47.780264 37.553132 -0.327901 -82.790563 -0.034353 4.188465 -8.607408 -0.351301 -0.114947 0.775020 -0.000000 0.000000 0.000000 0.000000 0.000000 0.000000 0.000000 10.038653 -1.295694 4.369598 41.752347 4.039139 -21.519470 2.870098 9.218736 -0.001849 -2.193368 1.648215 -0.036072 0.118300 -0.143960 0.000000 0.000000 0.000000 0.000000 0.000000 0.000000 0.000000 
